<mxfile host="app.diagrams.net" modified="2022-05-31T16:27:43.496Z" agent="5.0 (Macintosh; Intel Mac OS X 10_15_7) AppleWebKit/537.36 (KHTML, like Gecko) Chrome/92.0.4515.159 Safari/537.36" etag="Ebfe01AA_4MvapHk7-QL" version="18.1.3" type="github">
  <diagram id="1TAZJR26wlhVooxjXiCl" name="01 make contract">
    <mxGraphModel dx="901" dy="591" grid="1" gridSize="10" guides="1" tooltips="1" connect="1" arrows="1" fold="1" page="1" pageScale="1" pageWidth="827" pageHeight="1169" math="0" shadow="0">
      <root>
        <mxCell id="0" />
        <mxCell id="1" parent="0" />
        <mxCell id="q7nCM3h_fM4fGf8NAMuB-3" value="" style="edgeStyle=orthogonalEdgeStyle;rounded=0;orthogonalLoop=1;jettySize=auto;html=1;strokeWidth=2;exitX=0.5;exitY=1;exitDx=0;exitDy=0;entryX=0.5;entryY=0;entryDx=0;entryDy=0;" edge="1" parent="1" source="q7nCM3h_fM4fGf8NAMuB-2" target="q7nCM3h_fM4fGf8NAMuB-5">
          <mxGeometry relative="1" as="geometry" />
        </mxCell>
        <mxCell id="q7nCM3h_fM4fGf8NAMuB-10" style="edgeStyle=orthogonalEdgeStyle;rounded=0;orthogonalLoop=1;jettySize=auto;html=1;exitX=0.5;exitY=1;exitDx=0;exitDy=0;strokeWidth=2;" edge="1" parent="1" source="q7nCM3h_fM4fGf8NAMuB-1" target="q7nCM3h_fM4fGf8NAMuB-2">
          <mxGeometry relative="1" as="geometry" />
        </mxCell>
        <mxCell id="q7nCM3h_fM4fGf8NAMuB-1" value="Write Contract by Solidity" style="rounded=0;whiteSpace=wrap;html=1;" vertex="1" parent="1">
          <mxGeometry x="140" y="100" width="120" height="60" as="geometry" />
        </mxCell>
        <mxCell id="q7nCM3h_fM4fGf8NAMuB-6" style="edgeStyle=orthogonalEdgeStyle;rounded=0;orthogonalLoop=1;jettySize=auto;html=1;strokeWidth=2;exitX=0.5;exitY=1;exitDx=0;exitDy=0;" edge="1" parent="1" source="q7nCM3h_fM4fGf8NAMuB-2" target="q7nCM3h_fM4fGf8NAMuB-4">
          <mxGeometry relative="1" as="geometry">
            <mxPoint x="120" y="310" as="sourcePoint" />
          </mxGeometry>
        </mxCell>
        <mxCell id="q7nCM3h_fM4fGf8NAMuB-2" value="Complie&lt;br&gt;(solc package)" style="rounded=0;whiteSpace=wrap;html=1;" vertex="1" parent="1">
          <mxGeometry x="140" y="200" width="120" height="60" as="geometry" />
        </mxCell>
        <mxCell id="q7nCM3h_fM4fGf8NAMuB-4" value="ABI&lt;br&gt;(Application Binary Interface)" style="rounded=0;whiteSpace=wrap;html=1;" vertex="1" parent="1">
          <mxGeometry x="20" y="320" width="120" height="60" as="geometry" />
        </mxCell>
        <mxCell id="q7nCM3h_fM4fGf8NAMuB-5" value="Bytecode" style="rounded=0;whiteSpace=wrap;html=1;" vertex="1" parent="1">
          <mxGeometry x="260" y="320" width="120" height="60" as="geometry" />
        </mxCell>
        <mxCell id="q7nCM3h_fM4fGf8NAMuB-12" style="edgeStyle=orthogonalEdgeStyle;rounded=0;orthogonalLoop=1;jettySize=auto;html=1;entryX=0.75;entryY=0;entryDx=0;entryDy=0;strokeWidth=2;" edge="1" parent="1" source="q7nCM3h_fM4fGf8NAMuB-9" target="q7nCM3h_fM4fGf8NAMuB-11">
          <mxGeometry relative="1" as="geometry" />
        </mxCell>
        <mxCell id="q7nCM3h_fM4fGf8NAMuB-9" value="Web3" style="rounded=0;whiteSpace=wrap;html=1;" vertex="1" parent="1">
          <mxGeometry x="690" y="390" width="65" height="60" as="geometry" />
        </mxCell>
        <mxCell id="q7nCM3h_fM4fGf8NAMuB-11" value="web3" style="rounded=0;whiteSpace=wrap;html=1;" vertex="1" parent="1">
          <mxGeometry x="580" y="510" width="190" height="160" as="geometry" />
        </mxCell>
        <mxCell id="q7nCM3h_fM4fGf8NAMuB-13" value="" style="rounded=0;whiteSpace=wrap;html=1;fillColor=none;" vertex="1" parent="1">
          <mxGeometry x="30" y="480" width="230" height="210" as="geometry" />
        </mxCell>
        <mxCell id="q7nCM3h_fM4fGf8NAMuB-19" style="edgeStyle=orthogonalEdgeStyle;rounded=0;orthogonalLoop=1;jettySize=auto;html=1;exitX=0.5;exitY=1;exitDx=0;exitDy=0;entryX=0.5;entryY=0;entryDx=0;entryDy=0;strokeWidth=2;" edge="1" parent="1" source="q7nCM3h_fM4fGf8NAMuB-14" target="q7nCM3h_fM4fGf8NAMuB-16">
          <mxGeometry relative="1" as="geometry" />
        </mxCell>
        <mxCell id="q7nCM3h_fM4fGf8NAMuB-14" value="Node" style="rounded=0;whiteSpace=wrap;html=1;strokeWidth=1;fillColor=none;" vertex="1" parent="1">
          <mxGeometry x="50" y="510" width="80" height="40" as="geometry" />
        </mxCell>
        <mxCell id="q7nCM3h_fM4fGf8NAMuB-20" style="edgeStyle=orthogonalEdgeStyle;rounded=0;orthogonalLoop=1;jettySize=auto;html=1;exitX=1;exitY=0.5;exitDx=0;exitDy=0;strokeWidth=2;" edge="1" parent="1" source="q7nCM3h_fM4fGf8NAMuB-16" target="q7nCM3h_fM4fGf8NAMuB-17">
          <mxGeometry relative="1" as="geometry" />
        </mxCell>
        <mxCell id="q7nCM3h_fM4fGf8NAMuB-16" value="Node" style="rounded=0;whiteSpace=wrap;html=1;strokeWidth=1;fillColor=none;" vertex="1" parent="1">
          <mxGeometry x="50" y="610" width="80" height="40" as="geometry" />
        </mxCell>
        <mxCell id="q7nCM3h_fM4fGf8NAMuB-18" style="edgeStyle=orthogonalEdgeStyle;rounded=0;orthogonalLoop=1;jettySize=auto;html=1;entryX=1;entryY=0.5;entryDx=0;entryDy=0;strokeWidth=2;exitX=0.5;exitY=0;exitDx=0;exitDy=0;" edge="1" parent="1" source="q7nCM3h_fM4fGf8NAMuB-17" target="q7nCM3h_fM4fGf8NAMuB-14">
          <mxGeometry relative="1" as="geometry" />
        </mxCell>
        <mxCell id="q7nCM3h_fM4fGf8NAMuB-25" style="edgeStyle=orthogonalEdgeStyle;rounded=0;orthogonalLoop=1;jettySize=auto;html=1;exitX=1;exitY=0.5;exitDx=0;exitDy=0;entryX=0;entryY=0.5;entryDx=0;entryDy=0;strokeWidth=2;" edge="1" parent="1" source="q7nCM3h_fM4fGf8NAMuB-17" target="q7nCM3h_fM4fGf8NAMuB-24">
          <mxGeometry relative="1" as="geometry" />
        </mxCell>
        <mxCell id="q7nCM3h_fM4fGf8NAMuB-17" value="InfuraNode" style="rounded=0;whiteSpace=wrap;html=1;strokeWidth=1;fillColor=none;" vertex="1" parent="1">
          <mxGeometry x="150" y="565" width="80" height="40" as="geometry" />
        </mxCell>
        <mxCell id="q7nCM3h_fM4fGf8NAMuB-21" value="RinkeBy Network" style="rounded=0;whiteSpace=wrap;html=1;strokeWidth=1;fillColor=none;strokeColor=none;align=left;" vertex="1" parent="1">
          <mxGeometry x="30" y="460" width="130" height="20" as="geometry" />
        </mxCell>
        <mxCell id="q7nCM3h_fM4fGf8NAMuB-24" value="Infura API" style="rounded=0;whiteSpace=wrap;html=1;strokeWidth=1;fillColor=none;" vertex="1" parent="1">
          <mxGeometry x="290" y="565" width="80" height="40" as="geometry" />
        </mxCell>
        <mxCell id="q7nCM3h_fM4fGf8NAMuB-26" value="" style="rounded=0;whiteSpace=wrap;html=1;strokeWidth=1;fillColor=none;" vertex="1" parent="1">
          <mxGeometry x="580" y="570" width="50" height="40" as="geometry" />
        </mxCell>
        <mxCell id="q7nCM3h_fM4fGf8NAMuB-28" value="provider" style="rounded=0;whiteSpace=wrap;html=1;strokeWidth=1;fillColor=none;" vertex="1" parent="1">
          <mxGeometry x="460" y="570" width="80" height="40" as="geometry" />
        </mxCell>
      </root>
    </mxGraphModel>
  </diagram>
</mxfile>
